<svg width="24" height="24" viewBox="0 0 24 24" fill="none" xmlns="http://www.w3.org/2000/svg">
<rect width="24" height="24" rx="4" fill="#363639"/>
<path fill-rule="evenodd" clip-rule="evenodd" d="M12 4.965C9.88201 4.965 8.16502 6.68198 8.16502 8.8C8.16502 10.6076 9.41559 12.1231 11.0987 12.5285C9.75796 12.663 8.61256 13.1147 7.75992 13.955C6.72051 14.9794 6.19171 16.5067 6.19171 18.5066C6.19171 18.7689 6.40438 18.9816 6.66671 18.9816C6.92905 18.9816 7.14171 18.7689 7.14171 18.5066C7.14171 16.6666 7.62621 15.4206 8.42676 14.6316C9.22871 13.8413 10.4234 13.435 12 13.435C13.5765 13.435 14.7713 13.8413 15.5733 14.6316C16.3738 15.4206 16.8583 16.6666 16.8583 18.5066C16.8583 18.7689 17.071 18.9816 17.3333 18.9816C17.5956 18.9816 17.8083 18.769 17.8083 18.5066C17.8083 16.5067 17.2795 14.9794 16.2401 13.955C15.3874 13.1147 14.242 12.663 12.9013 12.5285C14.5844 12.1231 15.835 10.6076 15.835 8.8C15.835 6.68198 14.118 4.965 12 4.965ZM9.11502 8.8C9.11502 7.20665 10.4067 5.915 12 5.915C13.5934 5.915 14.885 7.20665 14.885 8.8C14.885 10.3933 13.5934 11.685 12 11.685C10.4067 11.685 9.11502 10.3933 9.11502 8.8Z" fill="#EBEBEF"/>
</svg>
