<svg width="16" height="16" viewBox="0 0 16 16" fill="none" xmlns="http://www.w3.org/2000/svg">
<path fill-rule="evenodd" clip-rule="evenodd" d="M13.7105 3.04376C13.9187 2.83548 13.9187 2.49779 13.7105 2.28952C13.5022 2.08123 13.1645 2.08123 12.9561 2.28952L7.99997 7.24572L3.04376 2.28952C2.83548 2.08123 2.49779 2.08123 2.28952 2.28952C2.08123 2.49779 2.08123 2.83548 2.28952 3.04376L7.24572 7.99997L2.28952 12.9561C2.08123 13.1645 2.08123 13.5022 2.28952 13.7105C2.49779 13.9187 2.83548 13.9187 3.04376 13.7105L7.99997 8.75422L12.9561 13.7105C13.1645 13.9187 13.5022 13.9187 13.7105 13.7105C13.9187 13.5022 13.9187 13.1645 13.7105 12.9561L8.75422 7.99997L13.7105 3.04376Z" fill="#EBEBEF"/>
</svg>
