<svg width="16" height="14" viewBox="0 0 16 14" fill="none" xmlns="http://www.w3.org/2000/svg">
<path fill-rule="evenodd" clip-rule="evenodd" d="M7.57919 0.265619C7.81268 0.0359315 8.18722 0.0359315 8.42072 0.265619L15.6207 7.3483C15.8569 7.58068 15.8601 7.96057 15.6277 8.1968C15.3953 8.43303 15.0154 8.43615 14.7792 8.20377L13.8333 7.27328V13.3334C13.8333 13.6095 13.6094 13.8334 13.3333 13.8334H2.66662C2.39048 13.8334 2.16662 13.6095 2.16662 13.3334V7.27328L1.22072 8.20377C0.984485 8.43615 0.604599 8.43303 0.372217 8.1968C0.139835 7.96057 0.142955 7.58068 0.379186 7.3483L7.57919 0.265619ZM7.99995 1.535L12.8333 6.28957V12.8334H10.6333V9.06669C10.6333 8.79055 10.4094 8.56669 10.1333 8.56669H6.93328C6.65714 8.56669 6.43328 8.79055 6.43328 9.06669V12.8334H3.16662V6.28957L7.99995 1.535ZM7.43328 12.8334H9.63328V9.56669H7.43328V12.8334Z" fill="#EBEBEF"/>
</svg>
