<svg width="16" height="16" viewBox="0 0 16 16" fill="none" xmlns="http://www.w3.org/2000/svg">
<path fill-rule="evenodd" clip-rule="evenodd" d="M2.6667 4.26666C2.37215 4.26666 2.13336 4.50545 2.13336 4.8C2.13336 5.09455 2.37215 5.33333 2.6667 5.33333H13.3334C13.6279 5.33333 13.8667 5.09455 13.8667 4.8C13.8667 4.50545 13.6279 4.26666 13.3334 4.26666H2.6667ZM2.13336 8C2.13336 7.70545 2.37215 7.46666 2.6667 7.46666H13.3334C13.6279 7.46666 13.8667 7.70545 13.8667 8C13.8667 8.29455 13.6279 8.53333 13.3334 8.53333H2.6667C2.37215 8.53333 2.13336 8.29455 2.13336 8ZM2.13336 11.2C2.13336 10.9055 2.37215 10.6667 2.6667 10.6667H13.3334C13.6279 10.6667 13.8667 10.9055 13.8667 11.2C13.8667 11.4945 13.6279 11.7333 13.3334 11.7333H2.6667C2.37215 11.7333 2.13336 11.4945 2.13336 11.2Z" fill="#EBEBEF"/>
</svg>
