<svg width="30" height="30" viewBox="0 0 30 30" fill="none" xmlns="http://www.w3.org/2000/svg">
<mask id="mask0_4069_4463" style="mask-type:alpha" maskUnits="userSpaceOnUse" x="6" y="2" width="18" height="26">
<path d="M16.8524 2.39829C16.8524 2.00839 16.3494 1.85149 16.1277 2.17229L6.07123 16.722C5.88893 16.986 6.07763 17.346 6.39823 17.346H12.3993V27.602C12.3993 27.992 12.9022 28.148 13.1239 27.828L23.1805 13.278C23.3628 13.014 23.174 12.654 22.8534 12.654H16.8524V2.39829Z" fill="white"/>
</mask>
<g mask="url(#mask0_4069_4463)">
<path d="M26.625 2.85156H0.625V3.53186H26.625V2.85156Z" fill="white"/>
<path d="M0.625 6.25293H26.625V6.93324H0.625V6.25293Z" fill="white"/>
<path d="M26.625 9.65527H0.625V10.3356H26.625V9.65527Z" fill="white"/>
<path d="M0.625 13.0566H26.625V13.7366H0.625V13.0566Z" fill="white"/>
<path d="M26.625 16.459H0.625V17.139H26.625V16.459Z" fill="white"/>
<path d="M0.625 19.8613H26.625V20.5413H0.625V19.8613Z" fill="white"/>
<path d="M26.625 23.2627H0.625V23.9427H26.625V23.2627Z" fill="white"/>
<path d="M0.625 26.665H26.625V27.345H0.625V26.665Z" fill="white"/>
</g>
</svg>
