<svg width="16" height="16" viewBox="0 0 16 16" fill="none" xmlns="http://www.w3.org/2000/svg">
<path d="M9.3333 14H6.66664M12 5.33334C12 4.27248 11.5785 3.25506 10.8284 2.50492C10.0783 1.75477 9.06084 1.33334 7.99997 1.33334C6.93911 1.33334 5.92169 1.75477 5.17154 2.50492C4.4214 3.25506 3.99997 4.27248 3.99997 5.33334C3.99997 7.39347 3.48029 8.80398 2.89975 9.73695C2.41006 10.5239 2.16521 10.9174 2.17419 11.0272C2.18413 11.1487 2.20988 11.1951 2.30782 11.2677C2.39628 11.3333 2.79503 11.3333 3.59254 11.3333H12.4074C13.2049 11.3333 13.6037 11.3333 13.6921 11.2677C13.7901 11.1951 13.8158 11.1487 13.8258 11.0272C13.8347 10.9174 13.5899 10.5239 13.1002 9.73695C12.5197 8.80398 12 7.39347 12 5.33334Z" stroke="#7E808A" stroke-linecap="round" stroke-linejoin="round"/>
</svg>
