<svg width="16" height="16" viewBox="0 0 16 16" fill="none" xmlns="http://www.w3.org/2000/svg">
<path fill-rule="evenodd" clip-rule="evenodd" d="M0.967163 7.99973C0.967163 4.11569 4.11581 0.967041 7.99985 0.967041C11.8839 0.967041 15.0325 4.11569 15.0325 7.99973C15.0325 11.8837 11.8839 15.0324 7.99985 15.0324C4.11581 15.0324 0.967163 11.8837 0.967163 7.99973ZM7.99985 1.91704C4.64048 1.91704 1.91716 4.64036 1.91716 7.99973C1.91716 11.3591 4.64048 14.0824 7.99985 14.0824C11.3592 14.0824 14.0825 11.3591 14.0825 7.99973C14.0825 4.64036 11.3592 1.91704 7.99985 1.91704ZM8.79987 11.2C8.79987 11.6418 8.4417 12 7.99987 12C7.55804 12 7.19987 11.6418 7.19987 11.2C7.19987 10.7582 7.55804 10.4 7.99987 10.4C8.4417 10.4 8.79987 10.7582 8.79987 11.2ZM6.41665 6.66669C6.41665 5.92213 7.05839 5.21669 7.99999 5.21669C8.94158 5.21669 9.58332 5.92213 9.58332 6.66669C9.58332 7.21104 9.27998 7.48823 8.78109 7.7913C8.72428 7.82581 8.65937 7.86351 8.59031 7.90362L8.5903 7.90363C8.39537 8.01683 8.16738 8.14924 7.99528 8.28334C7.74043 8.48191 7.44999 8.79742 7.44999 9.28002C7.44999 9.58378 7.69623 9.83002 7.99999 9.83002C8.30374 9.83002 8.54999 9.58378 8.54999 9.28002L8.54994 9.27876C8.5498 9.27619 8.54969 9.27426 8.55624 9.26392C8.56857 9.24447 8.59946 9.20706 8.67136 9.15104C8.78158 9.06516 8.90524 8.99349 9.06756 8.8994L9.06757 8.89939L9.06769 8.89933C9.15116 8.85094 9.24486 8.79663 9.35221 8.73142C9.92 8.38649 10.6833 7.82367 10.6833 6.66669C10.6833 5.27792 9.51173 4.11669 7.99999 4.11669C6.48825 4.11669 5.31665 5.27792 5.31665 6.66669C5.31665 6.97045 5.5629 7.21669 5.86665 7.21669C6.17041 7.21669 6.41665 6.97045 6.41665 6.66669Z" fill="#7E808A"/>
</svg>
