<svg width="16" height="16" viewBox="0 0 16 16" fill="none" xmlns="http://www.w3.org/2000/svg">
<path fill-rule="evenodd" clip-rule="evenodd" d="M2.09998 3.66667C2.09998 3.39053 2.32383 3.16667 2.59998 3.16667H13.4C13.6761 3.16667 13.9 3.39053 13.9 3.66667V10.2C13.9 10.4761 13.6761 10.7 13.4 10.7H13.3333H2.66664H2.59998C2.32383 10.7 2.09998 10.4761 2.09998 10.2V3.66667ZM2.16664 11.6365C1.54949 11.4505 1.09998 10.8778 1.09998 10.2V3.66667C1.09998 2.83824 1.77155 2.16667 2.59998 2.16667H13.4C14.2284 2.16667 14.9 2.83824 14.9 3.66667V10.2C14.9 10.8778 14.4505 11.4505 13.8333 11.6365V12.3333C13.8333 13.1618 13.1617 13.8333 12.3333 13.8333H3.66664C2.83821 13.8333 2.16664 13.1618 2.16664 12.3333V11.6365ZM12.8333 11.7V12.3333C12.8333 12.6095 12.6095 12.8333 12.3333 12.8333H3.66664C3.3905 12.8333 3.16664 12.6095 3.16664 12.3333V11.7H12.8333ZM5.36664 6.93334C5.36664 6.6572 5.5905 6.43334 5.86664 6.43334H7.49998V4.80001C7.49998 4.52386 7.72383 4.30001 7.99998 4.30001C8.27612 4.30001 8.49998 4.52386 8.49998 4.80001V6.43334H10.1333C10.4095 6.43334 10.6333 6.6572 10.6333 6.93334C10.6333 7.20948 10.4095 7.43334 10.1333 7.43334H8.49998V9.06667C8.49998 9.34281 8.27612 9.56667 7.99998 9.56667C7.72383 9.56667 7.49998 9.34281 7.49998 9.06667V7.43334H5.86664C5.5905 7.43334 5.36664 7.20948 5.36664 6.93334Z" fill="#7E808A"/>
</svg>
