<svg width="16" height="16" viewBox="0 0 16 16" fill="none" xmlns="http://www.w3.org/2000/svg">
<path fill-rule="evenodd" clip-rule="evenodd" d="M3.16669 2.60001C3.16669 2.32386 3.39055 2.10001 3.66669 2.10001H9.71914C9.85175 2.10001 9.97892 2.15268 10.0727 2.24645L12.6869 4.86067C12.7807 4.95443 12.8334 5.08161 12.8334 5.21422V13.4C12.8334 13.6761 12.6095 13.9 12.3334 13.9H3.66669C3.39055 13.9 3.16669 13.6761 3.16669 13.4V2.60001ZM3.66669 1.10001C2.83826 1.10001 2.16669 1.77158 2.16669 2.60001V13.4C2.16669 14.2284 2.83826 14.9 3.66669 14.9H12.3334C13.1618 14.9 13.8334 14.2284 13.8334 13.4V5.21422C13.8334 4.81639 13.6753 4.43486 13.394 4.15356L10.7798 1.53935C10.4985 1.25804 10.117 1.10001 9.71914 1.10001H3.66669ZM4.80002 4.30001C4.52388 4.30001 4.30002 4.52386 4.30002 4.80001C4.30002 5.07615 4.52388 5.30001 4.80002 5.30001H8.00002C8.27616 5.30001 8.50002 5.07615 8.50002 4.80001C8.50002 4.52386 8.27616 4.30001 8.00002 4.30001H4.80002ZM4.80002 7.50001C4.52388 7.50001 4.30002 7.72386 4.30002 8.00001C4.30002 8.27615 4.52388 8.50001 4.80002 8.50001H11.2C11.4762 8.50001 11.7 8.27615 11.7 8.00001C11.7 7.72386 11.4762 7.50001 11.2 7.50001H4.80002ZM4.80002 10.7C4.52388 10.7 4.30002 10.9239 4.30002 11.2C4.30002 11.4761 4.52388 11.7 4.80002 11.7H11.2C11.4762 11.7 11.7 11.4761 11.7 11.2C11.7 10.9239 11.4762 10.7 11.2 10.7H4.80002Z" fill="#7E808A"/>
</svg>
