<svg width="16" height="16" viewBox="0 0 16 16" fill="none" xmlns="http://www.w3.org/2000/svg">
<path fill-rule="evenodd" clip-rule="evenodd" d="M8.53336 2.93333C8.53336 2.63878 8.29457 2.39999 8.00002 2.39999C7.70547 2.39999 7.46669 2.63878 7.46669 2.93333V7.46666H2.93336C2.63881 7.46666 2.40002 7.70544 2.40002 7.99999C2.40002 8.29454 2.63881 8.53333 2.93336 8.53333H7.46669V13.0667C7.46669 13.3612 7.70547 13.6 8.00002 13.6C8.29457 13.6 8.53336 13.3612 8.53336 13.0667V8.53333H13.0667C13.3612 8.53333 13.6 8.29454 13.6 7.99999C13.6 7.70544 13.3612 7.46666 13.0667 7.46666H8.53336V2.93333Z" fill="#FCFF72"/>
</svg>
